<svg xmlns="http://www.w3.org/2000/svg" viewBox="0 0 64 64" id="pay">
  <path d="M32,2C15.46,2,2,15.46,2,32s13.46,30,30,30,30-13.46,30-30S48.54,2,32,2Zm0,58c-15.44,0-28-12.56-28-28S16.56,4,32,4s28,12.56,28,28-12.56,28-28,28Z"></path>
  <path d="M14.38,18c-2.42,0-4.38,1.97-4.38,4.38v19.23c0,2.42,1.97,4.38,4.38,4.38H49.62c2.42,0,4.38-1.97,4.38-4.38V22.38c0-2.42-1.97-4.38-4.38-4.38H14.38Zm37.62,23.62c0,1.31-1.07,2.38-2.38,2.38H14.38c-1.31,0-2.38-1.07-2.38-2.38v-15.62H52v15.62Zm0-19.23v1.62H12v-1.62c0-1.31,1.07-2.38,2.38-2.38H49.62c1.31,0,2.38,1.07,2.38,2.38Z"></path>
  <rect width="30" height="2" x="16" y="30" rx="1" ry="1"></rect>
  <path d="M43.93,36c-.29,.02-.55,.17-.73,.4l-2.2,2.93-2.2-2.93c-.17-.23-.44-.38-.73-.4-.3-.02-.57,.08-.78,.29l-3.29,3.29c-.39,.39-.39,1.02,0,1.41h0c.39,.39,1.02,.39,1.41,0l2.48-2.48,2.31,3.08c.19,.25,.49,.4,.8,.4s.61-.15,.8-.4l2.31-3.08,2.48,2.48c.39,.39,1.02,.39,1.41,0h0c.39-.39,.39-1.02,0-1.41l-3.29-3.29c-.21-.21-.48-.32-.78-.29Z"></path>
</svg>
