<svg xmlns="http://www.w3.org/2000/svg" viewBox="0 0 512 512" id="mobile-recharge">
  <path fill="#18171c" d="M256 482a22.5 22.5 0 1 0-22.5-22.5A22.526 22.526 0 0 0 256 482Zm0-30a7.5 7.5 0 1 1-7.5 7.5 7.508 7.508 0 0 1 7.5-7.5ZM372.5 0h-233A37.542 37.542 0 0 0 102 37.5v437a37.542 37.542 0 0 0 37.5 37.5h233a37.542 37.542 0 0 0 37.5-37.5v-437A37.542 37.542 0 0 0 372.5 0ZM395 474.5a22.526 22.526 0 0 1-22.5 22.5h-233a22.525 22.525 0 0 1-22.5-22.5V422h278Zm0-67.5H117V75h278Zm0-347H117V37.5A22.525 22.525 0 0 1 139.5 15h233A22.526 22.526 0 0 1 395 37.5ZM275.848 30h-39.696a7.5 7.5 0 1 0 0 15h39.696a7.5 7.5 0 0 0 0-15Zm-81.79 206.643 36.309 31.674-32.325 75.806a13.278 13.278 0 0 0 4.453 16.195 13.279 13.279 0 0 0 16.783-.677l98.638-85.083a13.5 13.5 0 0 0 .788-19.706l-40.522-41.048 29.093-73.219a13.5 13.5 0 0 0-22.043-14.58l-91.796 90.871a13.5 13.5 0 0 0 .622 19.767Zm96.629-94.93-26.808 67.464a13.501 13.501 0 0 0 2.94 14.468l40.084 40.603-92.527 79.812 30.216-70.861a13.467 13.467 0 0 0-3.544-15.469l-35.913-31.33Z"></path>
</svg>
