<svg xmlns="http://www.w3.org/2000/svg" width="24" height="24" fill="none" viewBox="0 0 24 24" id="square-transfer-horizontal">
  <path fill="#AAA" fill-rule="evenodd" d="M11.9426 1.25H12.0574C14.3658 1.24999 16.1748 1.24998 17.5863 1.43975C19.031 1.63399 20.1711 2.03933 21.0659 2.93414C21.9607 3.82895 22.366 4.96897 22.5603 6.41371C22.75 7.82519 22.75 9.63423 22.75 11.9426V12.0574C22.75 14.3658 22.75 16.1748 22.5603 17.5863C22.366 19.031 21.9607 20.1711 21.0659 21.0659C20.1711 21.9607 19.031 22.366 17.5863 22.5603C16.1748 22.75 14.3658 22.75 12.0574 22.75H11.9426C9.63423 22.75 7.82519 22.75 6.41371 22.5603C4.96897 22.366 3.82895 21.9607 2.93414 21.0659C2.03933 20.1711 1.63399 19.031 1.43975 17.5863C1.24998 16.1748 1.24999 14.3658 1.25 12.0574V11.9426C1.24999 9.63423 1.24998 7.82519 1.43975 6.41371C1.63399 4.96897 2.03933 3.82895 2.93414 2.93414C3.82895 2.03933 4.96897 1.63399 6.41371 1.43975C7.82519 1.24998 9.63423 1.24999 11.9426 1.25ZM6.61358 2.92637C5.33517 3.09825 4.56445 3.42514 3.9948 3.9948C3.42514 4.56445 3.09825 5.33517 2.92637 6.61358C2.75159 7.91356 2.75 9.62177 2.75 12C2.75 14.3782 2.75159 16.0864 2.92637 17.3864C3.09825 18.6648 3.42514 19.4355 3.9948 20.0052C4.56445 20.5749 5.33517 20.9018 6.61358 21.0736C7.91356 21.2484 9.62177 21.25 12 21.25C14.3782 21.25 16.0864 21.2484 17.3864 21.0736C18.6648 20.9018 19.4355 20.5749 20.0052 20.0052C20.5749 19.4355 20.9018 18.6648 21.0736 17.3864C21.2484 16.0864 21.25 14.3782 21.25 12C21.25 9.62177 21.2484 7.91356 21.0736 6.61358C20.9018 5.33517 20.5749 4.56445 20.0052 3.9948C19.4355 3.42514 18.6648 3.09825 17.3864 2.92637C16.0864 2.75159 14.3782 2.75 12 2.75C9.62177 2.75 7.91356 2.75159 6.61358 2.92637Z" clip-rule="evenodd"></path>
  <path fill="#111" fill-rule="evenodd" d="M11.0025 6.50686C11.2749 6.81894 11.2427 7.29272 10.9306 7.56508L8.99997 9.25001H17C17.4142 9.25001 17.75 9.5858 17.75 10 17.75 10.4142 17.4142 10.75 17 10.75H6.99997C6.68734 10.75 6.4075 10.5561 6.29773 10.2634 6.18795 9.97063 6.27128 9.64051 6.50682 9.43494L9.94432 6.43494C10.2564 6.16258 10.7302 6.19478 11.0025 6.50686zM17.7023 13.7367C17.5925 13.4439 17.3127 13.25 17 13.25L7.00003 13.25C6.58581 13.25 6.25003 13.5858 6.25003 14 6.25003 14.4142 6.58581 14.75 7.00003 14.75L15 14.75 13.0694 16.4349C12.7573 16.7073 12.7251 17.1811 12.9975 17.4932 13.2698 17.8052 13.7436 17.8374 14.0557 17.5651L17.4932 14.5651C17.7287 14.3595 17.812 14.0294 17.7023 13.7367z" clip-rule="evenodd"></path>
</svg>
